<?xml version="1.0" encoding="utf-8"?>
<!-- Generator: Adobe Illustrator 17.1.0, SVG Export Plug-In . SVG Version: 6.00 Build 0)  -->
<!DOCTYPE svg PUBLIC "-//W3C//DTD SVG 1.1//EN" "http://www.w3.org/Graphics/SVG/1.1/DTD/svg11.dtd">
<svg version="1.1" id="Layer_1" xmlns="http://www.w3.org/2000/svg" xmlns:xlink="http://www.w3.org/1999/xlink" x="0px" y="0px"
	 viewBox="0 0 60 60" enable-background="new 0 0 60 60" xml:space="preserve">
<circle fill="#336699" cx="30" cy="30" r="30"/>
<g>
	<g>
		<path fill="#FFFFFF" d="M48.6,17.2l-0.1-0.1c-0.1-0.1-0.1-0.1-0.2-0.2l-0.2-0.1c-0.4-0.3-0.9-0.4-1.4-0.4H13.4
			c-0.6,0-1.1,0.2-1.5,0.5L11.7,17l0,0c-0.1,0-0.1,0.1-0.1,0.1c-0.5,0.5-0.7,1.1-0.7,1.8v21.7c0,0.7,0.3,1.3,0.8,1.8
			c0.1,0.1,0.2,0.1,0.2,0.2c0.4,0.4,1,0.6,1.6,0.6h33.4c1.4,0,2.6-1.2,2.6-2.6V19C49.4,18.3,49.1,17.7,48.6,17.2z M36.6,29.3
			l9.7-8.1v17.1L36.6,29.3z M43.5,19.5L30.1,30.7L16.7,19.5H43.5z M13.9,21.2l9.7,8.1l-9.7,9V21.2z M16.4,40.2l9.6-9l4.2,3.5
			l4.1-3.4l9.6,8.9H16.4z"/>
	</g>
</g>
</svg>
