<?xml version="1.0" encoding="utf-8"?>
<!-- Generator: Adobe Illustrator 17.1.0, SVG Export Plug-In . SVG Version: 6.00 Build 0)  -->
<!DOCTYPE svg PUBLIC "-//W3C//DTD SVG 1.1//EN" "http://www.w3.org/Graphics/SVG/1.1/DTD/svg11.dtd">
<svg version="1.1" id="Layer_1" xmlns="http://www.w3.org/2000/svg" xmlns:xlink="http://www.w3.org/1999/xlink" x="0px" y="0px"
	 viewBox="0 0 30 30" enable-background="new 0 0 30 30" xml:space="preserve">
<path fill="#336699" d="M9.6,7C9.7,7,9.8,7,10,7.1c0.5,0.4,1,0.9,1.4,1.4c0.5,0.6,1,1.3,1.3,2c0.2,0.4,0.2,0.4-0.2,0.7
	c-0.4,0.3-0.9,0.6-1.3,0.9c-0.3,0.2-0.6,0.4-0.8,0.7c-0.2,0.3-0.3,0.7-0.1,1c0.6,1.3,1.5,2.5,2.5,3.5c0.9,0.9,1.9,1.6,3,2.2
	c0.1,0.1,0.3,0.1,0.4,0.2c0.2,0.1,0.3,0.1,0.5,0.1c0.3,0,0.5-0.1,0.7-0.3c0.2-0.2,0.4-0.5,0.6-0.7c0.3-0.4,0.5-0.9,0.8-1.3
	c0.2-0.3,0.3-0.4,0.4-0.4c0.1,0,0.2,0.1,0.4,0.2c1.2,0.6,2.3,1.5,3.3,2.5c0.3,0.3,0.4,0.6,0.1,1.1c-0.5,0.8-1.1,1.5-1.9,2
	C20.8,23,20.5,23,20.3,23c0,0-0.1,0-0.1,0c-1.3,0-2.5-0.4-3.6-0.8c-2-0.9-3.7-2.1-5.3-3.7c-1.4-1.4-2.5-3-3.4-4.7
	c-0.6-1.2-1-2.6-1-3.9c0-0.4,0.1-0.8,0.3-1.1C7.8,8,8.5,7.4,9.3,7C9.4,7,9.5,7,9.6,7 M9.6,5.8C9.3,5.8,9,5.8,8.8,6
	c-1,0.5-1.8,1.2-2.5,2.1C5.9,8.6,5.7,9.3,5.8,9.9c0.1,1.5,0.4,2.9,1.1,4.4c0.8,1.8,2.1,3.5,3.6,5.1c1.8,1.8,3.6,3.1,5.7,3.9
	c1.3,0.6,2.6,0.9,3.9,0.9c0.1,0,0.1,0,0.2,0c0.4,0,0.9-0.1,1.3-0.3c0.9-0.5,1.7-1.3,2.3-2.4c0.5-0.8,0.4-1.8-0.3-2.5
	c-1.1-1.1-2.3-2-3.6-2.7l0,0c-0.3-0.1-0.5-0.3-0.9-0.3c-0.7,0-1.1,0.5-1.3,0.8l0,0c-0.2,0.3-0.4,0.6-0.6,0.9
	c-0.1,0.1-0.2,0.3-0.3,0.4c-0.1,0.2-0.2,0.3-0.4,0.5l0,0c-0.1,0-0.2-0.1-0.3-0.1c-0.9-0.5-1.8-1.1-2.7-2c-1-1-1.7-2-2.2-3
	c0.1-0.1,0.3-0.2,0.5-0.4c0.1-0.1,0.3-0.2,0.4-0.3c0.3-0.2,0.7-0.4,1-0.7c0.3-0.2,0.6-0.5,0.7-0.9c0.2-0.5,0-1-0.2-1.2l0-0.1
	c-0.4-0.8-0.9-1.6-1.4-2.2c-0.5-0.7-1-1.2-1.6-1.6C10.4,5.9,10,5.8,9.6,5.8L9.6,5.8z"/>
<path fill="#336699" d="M15,1.2c7.6,0,13.8,6.2,13.8,13.8S22.6,28.8,15,28.8S1.2,22.6,1.2,15S7.4,1.2,15,1.2 M15,0C6.7,0,0,6.7,0,15
	s6.7,15,15,15s15-6.7,15-15S23.3,0,15,0L15,0z"/>
</svg>
