<?xml version="1.0" encoding="utf-8"?>
<!-- Generator: Adobe Illustrator 17.1.0, SVG Export Plug-In . SVG Version: 6.00 Build 0)  -->
<!DOCTYPE svg PUBLIC "-//W3C//DTD SVG 1.1//EN" "http://www.w3.org/Graphics/SVG/1.1/DTD/svg11.dtd">
<svg version="1.1" id="Layer_1" xmlns="http://www.w3.org/2000/svg" xmlns:xlink="http://www.w3.org/1999/xlink" x="0px" y="0px"
	 viewBox="0 0 30 30" enable-background="new 0 0 30 30" xml:space="preserve">
<path fill="#336699" d="M15,25.3C15,25.3,15,25.3,15,25.3c-0.2,0-0.4-0.1-0.5-0.3c-0.2-0.4-0.5-0.7-0.7-1c-0.5-0.8-1-1.5-1.5-2.2
	c-0.4-0.5-0.8-1.1-1.1-1.6c-1-1.4-1.9-2.8-2.8-4.3C7.1,13.8,7.1,11.2,8.2,9c1.1-2.3,3.3-3.8,5.7-4.2c0.4,0,0.7-0.1,1.1-0.1
	c3.7,0,6.8,2.5,7.5,6.2c0.4,1.9,0.1,3.6-0.8,5c-1,1.6-2.1,3.2-3.1,4.7l-0.1,0.2c-0.9,1.3-2.9,4.1-3,4.2C15.3,25.2,15.2,25.3,15,25.3
	z M15,5.9c-0.3,0-0.6,0-0.9,0.1C12,6.3,10.2,7.6,9.2,9.5c-0.9,1.9-0.9,4,0.1,5.8c0.8,1.4,1.8,2.8,2.7,4.2c0.4,0.5,0.8,1.1,1.1,1.7
	c0.5,0.7,1,1.4,1.5,2.2c0.1,0.1,0.2,0.2,0.2,0.4c0.7-0.9,1.8-2.6,2.5-3.5l0.1-0.2c1-1.5,2.1-3.1,3.1-4.7c0.7-1.2,0.9-2.6,0.6-4.1
	C20.7,8.1,18.1,5.9,15,5.9z M15,16.1L15,16.1c-1,0-2-0.4-2.7-1.1c-0.7-0.7-1.1-1.7-1.1-2.8c0-2,1.7-3.7,3.8-3.7c0,0,0,0,0,0
	c2.1,0,3.7,1.7,3.7,3.8c0,1-0.4,2-1.1,2.7C17,15.7,16,16.1,15,16.1z M15,9.1v0.6c-1.4,0-2.6,1.1-2.6,2.5c0,0.8,0.3,1.4,0.8,1.9
	c0.5,0.5,1.1,0.7,1.8,0.7c0,0,0,0,0,0c0.7,0,1.4-0.3,1.9-0.7c0.5-0.5,0.7-1.1,0.7-1.8c0-1.5-1.1-2.6-2.6-2.6L15,9.1z"/>
<path fill="#336699" d="M15,1.2c7.6,0,13.8,6.2,13.8,13.8S22.6,28.8,15,28.8S1.2,22.6,1.2,15S7.4,1.2,15,1.2 M15,0C6.7,0,0,6.7,0,15
	s6.7,15,15,15s15-6.7,15-15S23.3,0,15,0L15,0z"/>
</svg>
