<?xml version="1.0" encoding="utf-8"?>
<!-- Generator: Adobe Illustrator 17.1.0, SVG Export Plug-In . SVG Version: 6.00 Build 0)  -->
<!DOCTYPE svg PUBLIC "-//W3C//DTD SVG 1.1//EN" "http://www.w3.org/Graphics/SVG/1.1/DTD/svg11.dtd">
<svg version="1.1" id="Layer_1" xmlns="http://www.w3.org/2000/svg" xmlns:xlink="http://www.w3.org/1999/xlink" x="0px" y="0px"
	 viewBox="0 0 60 60" enable-background="new 0 0 60 60" xml:space="preserve">
<circle fill="#336699" cx="30" cy="30" r="30"/>
<g>
	<g>
		<path fill="#FFFFFF" d="M45,22.5c-1.4-7.3-7.6-12.4-15.1-12.4c-0.7,0-1.4,0-2.2,0.1c-5,0.7-9.3,3.8-11.6,8.4
			c-2.2,4.5-2.1,9.7,0.3,13.9c1.7,2.9,3.6,5.7,5.5,8.5l0.2,0.3c0.7,1,1.4,2,2,3c1,1.4,2,2.8,3,4.3c0.5,0.7,1,1.3,1.4,2
			c0.3,0.4,0.7,0.7,1.2,0.7h0.1c0.5,0,0.9-0.2,1.2-0.6c0.2-0.3,4.1-5.7,5.9-8.4l0.3-0.4c2-3,4.1-6.1,6.1-9.3
			C45.2,29.8,45.8,26.4,45,22.5z M19.2,31c-1.9-3.4-2-7.4-0.2-11c1.8-3.7,5.3-6.2,9.2-6.7c0.6-0.1,1.2-0.1,1.8-0.1
			c6,0,10.9,4.1,12.1,9.9c0.6,3,0.2,5.7-1.2,7.9c-1.9,3.1-4,6.1-6,9.1l-0.3,0.5c-1.2,1.7-3.3,4.7-4.5,6.5l-0.2-0.3
			c-1-1.5-2-2.9-3-4.3c-0.7-1.1-1.5-2.2-2.2-3.3C22.7,36.6,20.8,33.8,19.2,31z"/>
		<path fill="#FFFFFF" d="M30,17.6c-4.3,0-7.8,3.4-7.8,7.6c0,2.2,0.8,4.2,2.3,5.7c1.4,1.4,3.4,2.2,5.5,2.2c2.1,0,4.1-0.8,5.5-2.3
			c1.5-1.5,2.3-3.4,2.3-5.5C37.8,21.1,34.4,17.6,30,17.6z M34.7,25.5c0,1.3-0.5,2.4-1.4,3.3c-0.9,0.9-2.1,1.4-3.4,1.4
			c-1.3,0-2.4-0.5-3.3-1.3c-0.9-0.9-1.4-2.1-1.4-3.5c0-2.5,2.1-4.6,4.7-4.6h0C32.6,20.7,34.7,22.8,34.7,25.5z"/>
	</g>
</g>
</svg>
