<?xml version="1.0" encoding="utf-8"?>
<!-- Generator: Adobe Illustrator 17.1.0, SVG Export Plug-In . SVG Version: 6.00 Build 0)  -->
<!DOCTYPE svg PUBLIC "-//W3C//DTD SVG 1.1//EN" "http://www.w3.org/Graphics/SVG/1.1/DTD/svg11.dtd">
<svg version="1.1" id="Layer_1" xmlns="http://www.w3.org/2000/svg" xmlns:xlink="http://www.w3.org/1999/xlink" x="0px" y="0px"
	 viewBox="0 0 30 30" enable-background="new 0 0 30 30" xml:space="preserve">
<path fill="#336699" d="M24.3,8.7C24.3,8.7,24.2,8.7,24.3,8.7c-0.1-0.1-0.1-0.1-0.1-0.1c0,0,0,0-0.1,0c-0.2-0.1-0.4-0.2-0.6-0.2h-17
	c-0.2,0-0.4,0.1-0.6,0.2c0,0-0.1,0-0.1,0c0,0-0.1,0.1-0.1,0.1c0,0,0,0,0,0C5.5,8.9,5.4,9.2,5.4,9.5v11c0,0.3,0.1,0.5,0.3,0.7
	c0,0,0,0.1,0.1,0.1v0c0,0,0.1,0.1,0.1,0.1c0,0,0,0,0,0c0.2,0.1,0.4,0.2,0.7,0.2h17c0.6,0,1.1-0.5,1.1-1.1v-11
	C24.6,9.2,24.5,8.9,24.3,8.7z M23.4,19.7l-5.4-5l5.4-4.5V19.7z M22.4,9.5L15,15.7l-1.7-1.4c0,0-0.1-0.1-0.1-0.1L7.6,9.5H22.4z
	 M6.6,10.2l5.4,4.5l-5.4,5V10.2z M7.5,20.4l5.4-5l2.1,1.8l2.1-1.8l5.3,5H7.5z"/>
<path fill="#336699" d="M15,1.2c7.6,0,13.8,6.2,13.8,13.8S22.6,28.8,15,28.8S1.2,22.6,1.2,15S7.4,1.2,15,1.2 M15,0C6.7,0,0,6.7,0,15
	s6.7,15,15,15s15-6.7,15-15S23.3,0,15,0L15,0z"/>
</svg>
