<?xml version="1.0" encoding="utf-8"?>
<!-- Generator: Adobe Illustrator 17.1.0, SVG Export Plug-In . SVG Version: 6.00 Build 0)  -->
<!DOCTYPE svg PUBLIC "-//W3C//DTD SVG 1.1//EN" "http://www.w3.org/Graphics/SVG/1.1/DTD/svg11.dtd">
<svg version="1.1" id="Layer_1" xmlns="http://www.w3.org/2000/svg" xmlns:xlink="http://www.w3.org/1999/xlink" x="0px" y="0px"
	 viewBox="0 0 60 60" enable-background="new 0 0 60 60" xml:space="preserve">
<circle fill="#336699" cx="30" cy="30" r="30"/>
<g>
	<path fill="#FFFFFF" d="M47.5,36.5c-2.1-2.2-4.5-4-7.2-5.4c-0.5-0.3-1.1-0.6-2-0.6c-1.6,0-2.4,1.1-2.9,1.8
		c-0.5,0.6-0.9,1.3-1.3,1.9c-0.2,0.3-0.3,0.5-0.5,0.7c-0.2,0.2-0.3,0.5-0.5,0.7c-0.1,0-0.2-0.1-0.3-0.2c-1.8-0.9-3.5-2.2-5.1-3.8
		c-1.9-1.9-3.2-3.7-4.1-5.6c0.2-0.2,0.5-0.3,0.7-0.5c0.3-0.2,0.5-0.3,0.8-0.5c0.6-0.4,1.3-0.8,2-1.3c0.6-0.5,1.2-1,1.5-1.9
		c0.4-1.2-0.1-2.1-0.4-2.7l0-0.1c-0.8-1.7-1.8-3.1-2.9-4.4c-1.1-1.4-2-2.4-3.1-3.3c-1.3-1-2.8-1.2-4.3-0.5c-2,1-3.7,2.4-5,4.3
		c-0.8,1.2-1.1,2.4-1.1,3.8c0.1,2.9,0.9,5.8,2.3,8.8c1.7,3.6,4.1,7,7.2,10.1c3.5,3.5,7.2,6.1,11.2,7.8c2.6,1.1,5.2,1.7,7.8,1.8
		c0.2,0,0.3,0,0.5,0c0.9,0,1.8-0.3,2.6-0.7c1.9-1.1,3.4-2.6,4.7-4.8C49.2,40,49,38.1,47.5,36.5z M40.8,44.3c-0.1,0-0.1,0-0.2,0
		c-2.3-0.1-4.5-0.6-6.8-1.6c-3.7-1.6-7-3.9-10.2-7.1c-2.9-2.9-5-5.9-6.5-9.2c-1.2-2.6-1.9-5.1-2-7.6c0-0.7,0.1-1.3,0.5-1.9
		c1-1.4,2.2-2.5,3.8-3.3c0.2-0.1,0.3-0.1,0.4-0.1c0.1,0,0.3,0,0.5,0.2c0.9,0.7,1.7,1.6,2.6,2.8c0.9,1.2,1.8,2.4,2.5,3.8l0.1,0.1
		c0.1,0.2,0.2,0.4,0.2,0.4c0,0.1-0.3,0.3-0.5,0.4c-0.5,0.4-1.1,0.8-1.7,1.1c-0.3,0.2-0.6,0.4-0.9,0.6c-0.6,0.4-1.3,0.9-1.7,1.5
		c-0.5,0.8-0.7,1.5-0.3,2.4c1.1,2.4,2.7,4.7,5,7c1.9,1.9,3.9,3.3,5.9,4.4c0.2,0.1,0.5,0.2,0.7,0.3l0.1,0.1c1.1,0.5,1.9,0.3,2.8-0.5
		c0.5-0.5,0.9-1,1.2-1.5c0.2-0.3,0.4-0.6,0.5-0.8c0.3-0.5,0.7-1.1,1.1-1.6c0.2-0.3,0.4-0.5,0.5-0.5c0.1,0,0.3,0.1,0.6,0.3
		c2.3,1.2,4.4,2.8,6.3,4.8c0.5,0.6,0.6,1,0.2,1.6c-1,1.7-2.1,2.9-3.5,3.7C41.5,44.2,41.1,44.3,40.8,44.3z"/>
</g>
</svg>
