<?xml version="1.0" encoding="utf-8"?>
<!-- Generator: Adobe Illustrator 17.1.0, SVG Export Plug-In . SVG Version: 6.00 Build 0)  -->
<!DOCTYPE svg PUBLIC "-//W3C//DTD SVG 1.1//EN" "http://www.w3.org/Graphics/SVG/1.1/DTD/svg11.dtd">
<svg version="1.1" id="Layer_1" xmlns="http://www.w3.org/2000/svg" xmlns:xlink="http://www.w3.org/1999/xlink" x="0px" y="0px"
	 viewBox="0 0 100 100" enable-background="new 0 0 100 100" xml:space="preserve">
<path fill="#CCCCCC" d="M77,14c8.6,0,15,6.4,15,14.9v30.4C92,67.9,85.6,75,77,75H60v15.5L40,75H23.8C15.2,75,8,67.9,8,59.3V28.9
	C8,20.4,15.2,14,23.8,14H77 M77,9H23.8c-5.5,0-10.6,1.9-14.5,5.6C5.2,18.4,3,23.5,3,28.9v30.4C3,70.7,12.5,80,23.8,80h14.5
	l18.2,14.3c0.9,0.7,2,1.1,3,1.1c0.7,0,1.7-0.1,2.4-0.5c1.7-0.8,3-2.5,3-4.4V80h12c5.5,0,10.6-2.1,14.4-6.3c3.6-4,5.6-9,5.6-14.4
	V28.9c0-5.5-2-10.5-5.7-14.2C87.6,11,82.5,9,77,9L77,9z"/>
</svg>
