<?xml version="1.0" encoding="utf-8"?>
<!-- Generator: Adobe Illustrator 17.1.0, SVG Export Plug-In . SVG Version: 6.00 Build 0)  -->
<!DOCTYPE svg PUBLIC "-//W3C//DTD SVG 1.1//EN" "http://www.w3.org/Graphics/SVG/1.1/DTD/svg11.dtd">
<svg version="1.1" id="Layer_1" xmlns="http://www.w3.org/2000/svg" xmlns:xlink="http://www.w3.org/1999/xlink" x="0px" y="0px"
	 viewBox="0 0 300 300" enable-background="new 0 0 300 300" xml:space="preserve">
<g>
	<path fill="#CCCCCC" d="M291.9,207.5c-0.5-3.2,1-8.7-2.8-10.5c-2.3-1.2-5.4-1.3-7.9-1.4c-2.6-0.1-5.3-0.3-7.9,0l-3.5,0.3
		c-8.1,0.7-16.2,1.5-24.2,2.9c-7.1,1.2-14,2.8-21.1,3.7c-7.7,1-15.8,1.7-23.5,0.5c-4.7-0.8-10-2.5-12.4-6.9c-0.7-1.3-1-2.7-1.2-4.1
		l0-0.3c-0.3-4.5-0.9-8.4-4.3-11.8c-1.8-1.8-4-3.3-5.3-5.5c-1.3-2.2-1.4-4.6-1.1-7c0.3-2,0.8-4.2,0.2-6.2c-0.8-2.5-3-3.9-4.5-6
		c-2.8-3.9-1.4-8.9,0.9-12.7l0.1-0.1c3.7-4.6-1.8-9.4-2.1-14.1c-0.3-4.2,3.7-6.9,7-8.3c11.2-4.9,23.4-1.7,35.1-1.7l0.8,0
		c2.9,0,6-0.5,8.2-2.5c2-1.7,2.7-4.3,2.8-6.8c0.2-7.2-3.2-14.6-5.7-21.2c-2.4-6.4-5.1-12.9-6-19.7c-0.7-5.1,0-10.6,4.9-13.2
		c0.1,0,0.1,0,0.2-0.1l0.1,0l0.3-0.3c0.1,0,0.2-0.1,0.3-0.2c2.5-1.1,3.5,0.2,3.8,2.7c0.5,4,0.9,7.8,2.3,11.6
		c2.5,6.7,6.7,13,10.7,18.9c4.7,6.9,9.7,13.7,15.2,20c2.8,3.2,5.8,6.2,8.9,9.1c2.5,2.3,5.2,4.8,8.2,6.5c4.2,2.4,21.8,10.4,21.8,0.3
		V51.1c0.1-11.6-3.7-23.3-11.1-32.3c-7.5-9.1-18.5-14.5-30.4-14.5H54.4c-19.2,0-37.2,14.1-42.7,33.5c-1.7,3.8-3.2,8.7-2,12.9
		c0.9,3,3.6,4.4,6.6,4.4c4.3,0,8.5-0.2,12.8-0.5c17-1.2,33.9-4.3,51-4.5h1.3c12.5,0,25.1,1.8,36.9,6c4,1.4,10,3.6,10.4,8.6
		c0.4,4.5-3.5,10.2,1,13.8c2.1,3,4,6.4,4.4,10.1c0.2,1.7,0,3.4-0.6,4.9c-0.8,2-2.1,4-1.9,6.2c0.4,3.8,4.3,6.2,5.4,9.8
		c1.1,3.5,0.8,7.4-1.7,10.3c-2.5,3-7.2,5.3-7.5,9.7c-1.1,2.8,0.3,6.1,1.2,8.8c1,2.8,1.9,5.4,1.2,8.4c-1,4.4-4.4,6.9-8.9,6.9
		c-4.2,0-8.5-1.2-12.5-2.4c-2.4-0.7-4.7-1.6-6.9-2.8c-1.8-1-4.3-2.4-4.9-4.6c4.5,1.4,11.8,5.2,14.8-0.9c2.5-5-4.5-8-8.1-9
		c-5.6-1.6-11.4-2.1-17.2-2.8c-5.5-0.7-11.9-1.5-17,1.3c-2.2,1.4-2.6,4-1.2,6.1c0.8,1.3,1.9,2.5,3.2,3.3c0.8,0.4,1.7,0.7,2.3,1.3
		c0.7,0.6,0.9,1.7,1,2.6c0.2,2,0.2,4.1,0.1,6.2c-0.1,6.2-0.6,12.8-3.3,18.5c-0.9,1.9-2.1,3.7-3.8,5c-1.6,1.3-5.4,3.3-7.2,1.5
		c-1.2-1.2-0.7-3.6-0.7-5.1c0-2.3,0.1-4.6,0-6.9c-0.1-4.3-0.6-8.6-1.5-12.8c-1.4-6.6-4-12.9-8.1-18.3c-3.3-4.4-7.9-9-13-11.1
		c-5.3-2.2-11.2-3.5-16.9-4.3c-3.3-0.4-12.3-1.6-12.3,3.8v77c0,24.9,22.4,45.6,46.9,45.6h60c0.2,0,0.3,0,0.7,0.4l46.6,47
		c3.6,3.6,9,5.1,13.6,2.5c4.3-2.4,6.6-7.3,6.6-12.1v-36.5c0.4-0.5,2.7-1.4,3.6-1.4h63.1c19.1,0,41.4-15.6,42.6-36.6v-0.1
		L291.9,207.5z M248.7,232.4h-71.3c-4.1,0-7.4,3.5-7.4,7.8v42.4c0,0.1,0,0.3,0,0.6c0,0,0,0,0,0L130,242.8l-7.7-7.8
		c-1.8-1.8-3.9-2.7-6.3-2.7H54.4l-0.3,0c-17.9,0-34.7-15.3-34.7-33.5v-68c0-0.5,0.3-1,0.8-1l0.1,0c6.4,0.5,12.6,2.9,17.2,7.4
		c5.3,5.2,8,12.5,9.3,19.6c0.8,4.3,0.9,8.6,0.5,13c-0.3,4-0.7,8.2,0.9,12c2.5,6.1,9,7.4,14.9,6.1c3.8-0.8,7.5-2.6,10.5-4.9
		c3-2.3,5.1-5.3,6.8-8.7c3.9-8,5.4-17,5.2-25.8c2,5.7,8.3,9,13.5,11.1c5.3,2.1,10.9,3.5,16.5,4.3c5.2,0.8,10.5,1.1,15.3-1.6
		c6.1-3.4,9.2-10.4,9.8-17.1c0.4-4.3-0.2-8.8-1.7-12.8c10.1-8.6,11.8-22.8,4.2-34.1c3.2-8.7,1.6-17.9-4.4-25.5
		c1.6-6,0.9-12.6-2.8-17.7c-4.3-6-11.4-8.5-18.2-10.8c-7.9-2.7-16-4.7-24.2-5.7c-8.3-1-16.7-0.7-24.9-0.1C59.8,39.1,50.9,40.2,42,41
		c-4.5,0.4-8.9,0.8-13.4,1c-1.3,0.1-4.5,0.9-5.1-0.7c-0.4-1.1,0.8-2.8,1.3-3.8c5.2-10.9,14.2-19.9,26.7-21.1c1-0.1,2-0.1,3-0.1
		h194.3c18.5,0,28.2,17.5,28.2,34.8v63.2c0,0.7-0.4,1.2-1.1,0.9c-5.2-1.8-8.9-7.2-12.6-11.1c-4.2-4.4-7.9-9.2-11.4-14.1
		c-3.4-4.9-6.6-9.9-9.6-14.9c-3.1-5.1-6-10.4-7.1-16.3L235,58c-0.9-4.9-1.9-10.8-5.8-14.3c-4.8-4.2-11.9-2.2-16.5,1.1
		c-5.1,3.7-9.2,9.5-10.6,15.6c-1.9,7.8,1,16.2,3.9,23.3c3,7.4,7.4,14.7,8.7,22.7c-13.1-1.2-27-2.4-39.5,2.6
		c-5.3,2.1-10,5.8-12.8,10.8c-3.2,5.9-3,12.8,0,18.8c-4.9,8.7-3.5,18.8,3.5,26.1c-1.6,7.3-0.5,14.9,5.2,20.1c1.3,1.2,2.8,2.4,3.7,4
		c1.3,2.4,1.9,5.4,2.6,8l0.2,0.8c2.8,10.1,13.5,14.6,23,15.9c15.7,2.2,31.4-2.1,46.8-4.2c10.2-1.4,20.6-2,30.9-1.5
		c0.3,0,0.5,0.1,0.7,0.3c0.2,0.2,0.3,0.5,0.2,0.7C277.3,218.1,263.4,232.4,248.7,232.4z M85.2,141.6c0.2,0.1,0.3,0.1,0.3,0.1
		c0.1,0.3-0.1,0.9-0.2,1.2C85.3,142.5,85.3,142,85.2,141.6C85.5,141.7,85.3,142,85.2,141.6z"/>
</g>
</svg>
