<svg xmlns="http://www.w3.org/2000/svg" viewBox="0 0 137.8 100.98"><defs><style>.cls-1{fill:#0cc;}</style></defs><title>Ресурс 1</title><g id="Слой_2" data-name="Слой 2"><g id="Layer_5" data-name="Layer 5"><path class="cls-1" d="M53.58,101c-1.64-.11-2.31-1.14-3.11-1.94Q26.1,74.68,1.69,50.36c-2.15-2.13-2.34-3.49-.06-5.6,4.14-3.85,8.16-7.86,12-12,2.17-2.34,3.57-1.91,5.62.18C29.52,43.37,40,53.59,50.22,64.11c2.44,2.51,3.65,2.46,6.09,0,20.37-20.59,41-41,61.32-61.56,3-3,4.93-3.69,7.9-.16a89.49,89.49,0,0,0,9.87,9.89c3,2.64,3.29,4.37.2,7.43C111.22,43.8,87,68.1,62.79,92.34c-2.35,2.36-4.68,4.73-7.07,7A18.29,18.29,0,0,1,53.58,101Z"/></g></g></svg>