<?xml version="1.0" encoding="utf-8"?>
<!-- Generator: Adobe Illustrator 17.1.0, SVG Export Plug-In . SVG Version: 6.00 Build 0)  -->
<!DOCTYPE svg PUBLIC "-//W3C//DTD SVG 1.1//EN" "http://www.w3.org/Graphics/SVG/1.1/DTD/svg11.dtd">
<svg version="1.1" id="Layer_1" xmlns="http://www.w3.org/2000/svg" xmlns:xlink="http://www.w3.org/1999/xlink" x="0px" y="0px"
	 viewBox="0 0 300 300" enable-background="new 0 0 300 300" xml:space="preserve">
<g>
	<path fill="#336699" d="M128,224.4c-0.3-3.1-2.4-4.7-5.2-5.8l-4-1.4l-2.7-0.9c-2.1-0.8-4.2-1.7-6-3.1c-0.8-0.7-1.4-1.5-1.9-2.4
		c-2.1-4.2,0.2-9.2,4.3-11c0.9-0.4,1.9-0.8,2.8-1c1-0.2,1.9-0.4,2.8-0.5c4-0.3,8.1,0,11.7,1.8c1.1,0.6,1.9,1.2,2.5,2.1
		c0.8,1.2,1.3,3.2,0,4.2c-1.1,1-3,0.9-4.2,0.1c-0.6-0.4-1.1-1-1.5-1.9c-1.8-3.8-7.4-4.8-10.6-2.2c-1.5,1.2-2.2,4-1.2,5.8
		c0.3,0.5,0.6,0.9,1,1.3c0.8,0.8,1.8,1.4,2.8,1.8l1.9,0.8l2.3,0.8c1.2,0.4,2.4,0.8,3.7,1.2c0.6,0.2,1.2,0.5,1.8,0.8
		c0.6,0.3,1.2,0.6,1.7,1c1.9,1.1,3.7,2.5,4.5,4.6c0.8,2.1,0.4,4.7-0.6,6.5c-0.7,1.3-1.7,2.3-3,3.3c-1.2,0.9-2.8,1.6-4.5,2.1
		c-3.5,0.9-7.3,1-10.8,0.3c-1.6-0.3-3.1-0.8-4.3-1.3c-1.4-0.6-2.8-1.5-3.6-2.8c-0.7-1.2-1.1-3.2,0.2-4.1c0.3-0.2,0.6-0.4,0.9-0.6
		c2-0.8,4.1,0.5,4.9,2.3c0.8,1.9,2.2,3,4.1,3.7c1.8,0.6,4,0.5,5.9,0c1.6-0.4,3-1.3,3.8-2.8C127.8,226.2,128,225.4,128,224.4
		C127.9,223.1,128,225.4,128,224.4z"/>
	<path fill="#336699" d="M165.5,201c0,1.8-0.9,2.7-2.7,2.7h-2.3c-1.8,0-3.4,0.3-4.7,0.8c-2.3,0.8-4.2,2.5-5.1,4.8
		c-0.4,1-0.6,2.1-0.6,3.2v15.6c0,1.4-0.1,2.8-1,3.9c-1,1-3,1.1-4.3,0.9c-1.6-0.3-1.9-1.8-1.9-3.2v-28.7c0-1.1,0.2-1.9,0.7-2.3
		c1.3-1.1,3.6-0.9,4.8,0.2c1.4,1.3,1.6,3.3,1.6,5.1v1.7h0.1c0.4-0.7,0.9-1.4,1.6-2.3c0.6-0.9,1.4-1.7,2.3-2.5c0.9-0.8,2-1.4,3.2-2
		c1.2-0.6,2.6-0.8,4.1-0.8h0.8c1.2,0,2,0.3,2.5,0.8C165.2,199.2,165.4,200,165.5,201C165.5,202.8,165.4,200,165.5,201z"/>
	<path fill="#336699" d="M190.1,226.4l-0.2-0.1c-3.5,5.4-10.5,8.2-16.8,5.9c-1.3-0.4-2.4-1.1-3.3-1.9c-0.9-0.8-1.5-1.8-2-3
		c-1.6-4.5-0.4-9.8,3.4-12.7c3.8-2.8,8.9-3.3,13.5-3.3h5.1v-1.9c0-3-0.4-7.1-3.8-8.1c-3.5-1.1-6.8-0.3-9.3,2.4c-1.3,1.4-3,2.8-5,2.3
		c-2.4-0.5-1.8-3.5-0.4-4.8c0.8-0.7,1.9-1.3,3.3-1.8c4.9-1.7,10.9-2.3,15.9-0.8c1.7,0.6,3,1.3,3.9,2.3c2.3,2.5,2.7,6.2,2.7,9.5v19.1
		c0,1.1-0.2,1.9-0.6,2.5c-1.2,1.6-4.4,0.9-5.4-0.7C190.4,230.4,190.1,228.6,190.1,226.4z M189.8,214.2h-4.1
		c-4.5,0-10.1,1.1-11.2,6.2c-0.5,2.1-0.4,4.8,1.3,6.4c1.9,1.8,5.2,1.7,7.5,1c3.4-1.1,6.5-3.8,6.5-7.6L189.8,214.2L189.8,214.2z"/>
	<path fill="#336699" d="M232.7,198c2.1,0,2.6,1.6,1.9,3.4L223,231.2c-1,2.4-6.8,2.6-7.7,0l-11.4-29.7c-1.1-2.3,0.5-3.6,2.7-3.4
		c2.6,0.2,4.4,2.4,5.3,4.7l8.4,23.4h0.3l4.8-12.5c1-2.8,2.2-6.5,3.6-11.2C229.5,200.4,230.3,198,232.7,198z"/>
	<path fill="#336699" d="M242,229.7V201c0-1.1,0.2-1.9,0.7-2.3c1.6-1.3,4.2-0.7,5.4,0.8c0.8,1,1.1,2.5,1.1,4.5v0.5h0.1
		c3.2-5.1,9.4-7.4,15.2-6.1c4.9,1.1,6.7,5.5,6.7,10.2v21.1c0,0.9-0.1,2.3-0.9,2.9c-0.9,0.6-2.5,0.5-3.5,0.2
		c-2.4-0.7-2.7-3.4-2.7-5.5v-17.4c0-2.1-0.4-4.5-2.1-5.9c-1.9-1.6-4.8-1.5-7-0.6c-2.9,1.2-5.7,4-5.7,7.3v17.4c0,1-0.1,1.8-0.2,2.5
		c-0.1,0.6-0.4,1.1-0.8,1.5c-1.2,1.2-4.6,1.6-5.6,0.1C242.2,231.6,242,230.8,242,229.7z"/>
	<path fill="#336699" d="M282.4,192.2c-1.7-1.7-1.5-4.3,0-6.1c0.4-0.4,0.8-0.7,1.4-1c2.3-0.9,4.6,0.2,5.6,2.3c0.4,1.1,0.5,2.2,0,3.3
		c-0.4,1.1-1.4,1.9-2.3,2.3c-0.6,0.2-1.1,0.3-1.7,0.3C284.2,193.5,283.2,193,282.4,192.2S283.2,193,282.4,192.2z M289.2,202.7v25.5
		c0,1-0.1,1.8-0.2,2.4c-0.3,1.5-1.5,2.1-2.9,2.3c-1.1,0.1-2.8,0.3-3.5-0.8c-0.4-0.6-0.6-1.4-0.6-2.5v-28.4c0-1.1,0.2-1.9,0.6-2.5
		c1.2-1.6,4.4-0.9,5.6,0.3C288.8,199.9,289.2,201.1,289.2,202.7z"/>
</g>
<path fill="#336699" d="M145.6,159.6c-1.3-0.7-6-0.8-7.4-0.6c-5.2,0.5-8.6,0.8-13.2,1.5c-5.3,0.9-28,6.5-28.9-3.7
	c-0.2-2.8-0.3-4.1-2.5-6.1c-1.7-1.4-2.9-2.8-2.7-5.2c0.3-2.8,0.9-3.4-1.3-5.5s-1.7-5-0.2-7.4l0.1-0.1c1.4-1.7-0.5-4-1-5.6
	c-0.8-2.9,1.8-4.7,4.2-5.6c5.6-2.1,11.2-0.6,16.9-0.6c14.3-0.2-8.5-25.2,1.9-30.7c0.1,0,0.1-0.1,0.1-0.1c0.1-0.1,0.1-0.1,0.2-0.1
	c1.9-0.8,2.5,0.3,2.6,2.1c0.2,2.8,0.9,5.2,2.3,7.7c2.6,4.8,6.1,9.6,9.5,13.9c2.6,3.3,5.8,6.4,9.2,9c1.7,1.2,10.5,5.2,10.5,1V88.7
	c0.1-11.8-8-22.1-19.6-22.1H32.4c-9.4,0-17.6,6.9-20.2,15.8c0,0-3.4,7.7,1.8,7.7c3.2,0,6.5-0.3,9.8-0.6c7-0.6,14-1.8,21-1.9
	c6.5-0.1,13.2,0.9,19.3,3.2c2.1,0.8,4.8,2.1,4.7,4.8c-0.1,1.9-1.5,4.5,0.3,5.9c1.4,2,2.6,4.3,2.2,6.9c-0.2,1.2-1.2,2.5-1.2,3.7
	c0.1,1.3,1.7,2.5,2.3,3.8c0.9,2.1,1,4.5-0.6,6.3c-1.1,1.3-3.4,2.6-3.5,4.5c-0.8,1.9,1.6,5.2,1.3,7.5c-0.3,3-2.3,4.6-5.2,4.5
	c-2.5-0.1-12.5-2.2-11.9-5.9c1.9,0.4,4.5,2.2,6.3,1c2.2-1.5,0.6-3.4-1.2-4.1c-2.5-1-5.4-1.4-8.1-1.7c-2.8-0.3-7-1.1-9.6,0.3
	c-0.9,0.6-1,1.4-0.4,2.3c1.7,2.8,3.2,0.6,3.3,4.8c0.1,4.2-0.1,12.3-4.8,14.3c-1.7,0.8-3.5,0.7-3.5-1.5c0.1-3.4,0.1-6.8-0.6-10.1
	c-1.2-6-4.1-10.9-9.3-14.1c-1.8-1.1-14.2-4.5-14.2-1V160c0,11.8,10.5,21.6,22.2,21.6h29c0.3,0,0.5,0.1,0.7,0.3l22.5,22.7
	c3.9,3.9,9,0.6,9-4.3v-17.7c0-0.6,1.7-1.1,2.2-1.1h30.5c9.1,0,19.6-7.5,20.1-17.2C146.7,163.1,147,160.3,145.6,159.6z M126.3,176.8
	H91.9c-1.8,0-3.1,1.6-3.1,3.3v20.3c0,0.6,0.1,1.8-0.8,0.8l-19.4-19.5l-3.7-3.8c-0.8-0.8-1.7-1.2-2.7-1.2H32.4
	C23.5,176.8,15,169.2,15,160v-32.9c0-0.6,0.4-1,1-1c5.4,0.4,9.4,3.2,11.6,8c1.2,2.8,1.9,5.8,2.1,8.7c0.1,2.5-0.6,5.1-0.1,7.6
	c1.5,7,11.2,3.5,13.8-0.5c3.4-5.2,4.1-12.2,3.3-18.2c1.6,0.1,1.2,0.5,1,1.8c-0.7,6.5,12.6,9.2,17.1,9.3c8,0.3,10.5-8.8,7.9-15.2
	c5.1-4.1,5.8-11,2.1-16.3c1.7-4.3,0.8-8.7-2.1-12.3c1.5-5.2-0.8-9.9-5.8-11.9c-5.9-2.5-13-4.4-19.4-4.5c-9.6-0.2-20,1.8-29.6,2
	c-0.7,0-1.2-0.9-0.9-1.5c2.4-5.8,7.1-11.9,15.4-11.9h93.9c8.9,0,14.1,8.1,14.1,17.3v30.5c0,0.7-0.6,1.2-1.2,0.9
	c-2.3-0.8-4.3-3.4-5.9-5.1c-3.3-3.4-5.9-7.2-8.5-11.2c-2.2-3.5-4.8-7.2-5.6-11.4c-0.6-3-1.2-7.6-5-8c-5.1-0.6-10.1,5.8-10.3,10.4
	c-0.3,7.6,5.8,15,6.4,21.1c-6.4-0.6-13.4-1.2-19.5,1.2c-5.7,2.3-9,8.1-5.8,13.8c-2.5,4.2-1.7,9.1,1.7,12.5c-0.8,3.2-0.5,6.8,1.9,9.1
	c2.5,2.4,2.3,1.6,3.7,6.8c1.4,5.2,7.4,7.2,12.2,7.5c5.2,0.3,10.5-0.4,15.6-1.3c9.7-1.8,16.7-1.8,20.5-1.6c0.6,0,1,0.5,0.9,1
	C140.5,169.9,133.4,176.8,126.3,176.8z"/>
<linearGradient id="SVGID_1_" gradientUnits="userSpaceOnUse" x1="-26.3106" y1="216.4832" x2="-55.6346" y2="137.9706" gradientTransform="matrix(1 0 0 -1 120 302)">
	<stop  offset="0" style="stop-color:#00CCCC"/>
	<stop  offset="0.9001" style="stop-color:#0099FF"/>
</linearGradient>
<path fill="url(#SVGID_1_)" d="M138.6,165.7c1,0.1-2.4,4.1-2.7,4.4c-2.4,2.6-6,4.6-9.6,4.6c-3,0.2-6.2,0-9.3,0c-8.4,0-16.8,0-25.2,0
	c-2.9,0-5.2,2.5-5.2,5.4v17.1L70,180.3l-3.7-3.9c-1.1-1.1-2.5-1.8-4.1-1.8H32.4c-8.1,0.1-15.3-6.8-15.3-14.6v-31.8
	c4.1,0.6,7,2.9,8.7,6.8c1.1,2.5,1.7,5.2,1.9,8.1c0.1,0.9-0.1,1.8-0.1,2.8c-0.1,1.7-0.3,3.3,0.1,5.1c1.2,5.4,6.7,6.4,11.3,4.7
	c6.7-2.5,9.2-9.3,9.9-15.9c4.8,3.9,13.6,5,16,5.1c8.7,0,12.6-9,10.3-16.5c4.6-4.5,5.4-11.4,2-17.2c1.3-4.2,0.6-8.7-2.1-12.5
	c1.2-5.7-1.6-11-7.2-13.3c-6.8-2.9-14.1-4.5-20.1-4.7c-9.4,0-18.8,1.5-28.2,1.9c2-4.4,5.9-9.2,12.8-9.2l93.5-0.3
	c8.2,0,12.9,7.8,12.9,15.2v28.9c-1.4-0.8-1.8-1.5-2.8-2.5c-0.3-0.4-0.8-0.8-1.1-1.1c-3.3-3.4-5.9-7.2-8.3-10.8
	c-0.3-0.4-0.6-0.8-0.8-1.2c-1.9-3-4-6.2-4.6-9.5l-0.1-0.3c-0.6-3.2-1.7-8.7-6.8-9.2c-5,0-9.5,3.4-11.4,7.9
	c-2.6,5.9,0.2,12.4,2.7,17.8c0.8,1.9,1.7,3.8,2.2,5.4c-8.6-0.8-21.9-0.9-25.4,9c-1,2.7-0.8,5.4,0.4,8.1c-2.1,4.4-1.4,9.3,1.8,13.1
	c-0.7,4,0.3,7.6,2.6,9.9c0.3,0.3,0.7,0.6,1,0.9c1.2,1,1.2,1,2.3,5v0.1c2.1,7.5,11.2,8.7,13.9,9c11,0.8,21.8-3.1,32.8-3.1
	C137.7,165.7,138,165.6,138.6,165.7z"/>
</svg>
