<?xml version="1.0" encoding="utf-8"?>
<!-- Generator: Adobe Illustrator 17.1.0, SVG Export Plug-In . SVG Version: 6.00 Build 0)  -->
<!DOCTYPE svg PUBLIC "-//W3C//DTD SVG 1.1//EN" "http://www.w3.org/Graphics/SVG/1.1/DTD/svg11.dtd">
<svg version="1.1" width="100" height="40" id="Layer_1" xmlns="http://www.w3.org/2000/svg" xmlns:xlink="http://www.w3.org/1999/xlink" x="0px" y="0px"
	 viewBox="0 0 100 40" enable-background="new 0 0 100 40" xml:space="preserve">
<g>
	<path fill="#00CCCC" d="M11.5,28.4c-0.1-0.8-0.3-1.4-0.8-1.9c-0.5-0.5-1.1-0.9-2.1-1.3l-2.2-0.8L5,23.9c-0.6-0.2-1.2-0.5-1.8-0.8
		c-0.6-0.3-1.1-0.6-1.5-0.9c-0.4-0.4-0.8-0.8-1-1.3c-0.3-0.5-0.4-1.2-0.4-1.9c0-0.7,0.1-1.4,0.4-1.9s0.6-1,1-1.4s0.9-0.7,1.4-0.9
		c0.5-0.2,1-0.4,1.5-0.6c0.5-0.1,1-0.2,1.5-0.3C6.6,14,7,14,7.3,14c1.1,0,2.1,0.1,3,0.3c0.9,0.2,1.6,0.5,2.2,0.8
		c0.6,0.3,1.1,0.7,1.4,1.1c0.3,0.4,0.5,0.9,0.5,1.3c0,0.4-0.2,0.8-0.5,1c-0.3,0.3-0.6,0.4-1.1,0.4c-0.5,0-0.9-0.1-1.2-0.3
		c-0.3-0.2-0.6-0.6-0.8-1c-0.6-1.3-1.8-2-3.4-2c-1,0-1.8,0.3-2.4,0.8C4.3,16.7,4,17.5,4,18.5c0,0.3,0.1,0.6,0.2,0.9
		c0.2,0.3,0.3,0.5,0.5,0.7c0.2,0.2,0.5,0.4,0.7,0.6C5.8,20.9,6,21,6.3,21.1l1.1,0.5L8.7,22c0.3,0.1,0.7,0.2,1,0.3
		c0.3,0.1,0.7,0.2,1,0.3c0.3,0.1,0.6,0.3,1,0.4c0.3,0.2,0.6,0.3,0.9,0.5c0.4,0.2,0.7,0.5,1,0.7c0.3,0.2,0.6,0.5,0.9,0.8
		c0.3,0.3,0.5,0.6,0.6,1c0.2,0.4,0.2,0.8,0.2,1.3c0,0.8-0.2,1.6-0.6,2.3c-0.4,0.7-0.9,1.3-1.6,1.8c-0.7,0.5-1.5,0.9-2.5,1.2
		c-1,0.3-2,0.4-3.2,0.4c-0.9,0-1.8-0.1-2.7-0.3c-0.9-0.2-1.7-0.4-2.4-0.7C1.6,31.8,1,31.5,0.6,31S0,30,0,29.4c0-0.2,0-0.4,0.1-0.6
		c0.1-0.2,0.2-0.3,0.3-0.5c0.2-0.1,0.3-0.2,0.5-0.3C1.1,28,1.3,28,1.5,28c1,0,1.7,0.5,2.1,1.4c0.1,0.3,0.3,0.5,0.5,0.8
		c0.2,0.3,0.4,0.5,0.7,0.7c0.3,0.2,0.7,0.4,1.1,0.5c0.5,0.2,1,0.2,1.7,0.2c0.6,0,1.1-0.1,1.5-0.2c0.5-0.1,0.9-0.3,1.2-0.6
		c0.3-0.3,0.6-0.6,0.8-1C11.4,29.3,11.5,28.9,11.5,28.4z"/>
	<path fill="#00CCCC" d="M32,15.5c0,1-0.5,1.5-1.5,1.5h-1.3c-1,0-1.8,0.2-2.6,0.4c-0.7,0.3-1.3,0.6-1.8,1.1s-0.8,0.9-1,1.5
		c-0.2,0.6-0.3,1.2-0.3,1.7v8.5c0,0.5,0,1-0.1,1.3s-0.2,0.6-0.4,0.8c-0.2,0.2-0.5,0.3-0.8,0.4C22,32.9,21.6,33,21.2,33
		c-0.6,0-1-0.2-1.2-0.5c-0.2-0.3-0.3-0.8-0.3-1.4V15.5c0-0.6,0.1-1,0.4-1.3c0.3-0.2,0.7-0.4,1.3-0.4c0.7,0,1.2,0.3,1.7,0.8
		c0.4,0.6,0.6,1.4,0.6,2.5V18h0.1c0.2-0.4,0.5-0.8,0.9-1.3c0.3-0.5,0.8-0.9,1.3-1.4c0.5-0.5,1.1-0.8,1.7-1.1
		c0.7-0.3,1.4-0.5,2.3-0.5h0.5c0.6,0,1.1,0.2,1.4,0.4C31.8,14.6,32,15,32,15.5z"/>
	<path fill="#00CCCC" d="M45.5,29.4l-0.1,0c-0.8,1.3-1.8,2.2-2.9,2.8S40.1,33,38.6,33c-0.9,0-1.8-0.1-2.5-0.4
		c-0.7-0.2-1.3-0.6-1.8-1c-0.5-0.5-0.8-1-1.1-1.6c-0.2-0.6-0.4-1.3-0.4-2.1c0-0.8,0.2-1.6,0.4-2.4s0.8-1.5,1.5-2.1
		c0.7-0.6,1.7-1.1,2.9-1.5s2.8-0.6,4.8-0.6h2.8v-1.1c0-0.9-0.1-1.6-0.2-2.2c-0.2-0.6-0.4-1.1-0.7-1.5c-0.3-0.4-0.7-0.6-1.2-0.8
		c-0.5-0.2-1.1-0.3-1.7-0.3c-1.3,0-2.4,0.5-3.4,1.6c-0.8,0.9-1.6,1.3-2.3,1.3c-0.5,0-0.8-0.1-1-0.4c-0.2-0.3-0.3-0.6-0.3-0.9
		c0-0.5,0.2-0.9,0.7-1.3c0.5-0.4,1.1-0.7,1.8-1c0.8-0.3,1.6-0.5,2.5-0.6s1.8-0.2,2.8-0.2c1.4,0,2.5,0.2,3.4,0.4
		c0.9,0.3,1.6,0.7,2.1,1.3c0.5,0.6,0.9,1.3,1.1,2.1c0.2,0.9,0.3,1.9,0.3,3.1v10.4c0,0.6-0.1,1.1-0.3,1.4c-0.2,0.3-0.6,0.5-1.2,0.5
		c-0.8,0-1.4-0.3-1.8-0.8C45.6,31.6,45.5,30.7,45.5,29.4z M45.3,22.8h-2.2c-4.1,0-6.3,1.5-6.3,4.6c0,2.1,1.1,3.1,3.3,3.1
		c0.5,0,1-0.1,1.6-0.3c0.6-0.2,1.2-0.5,1.7-0.8s1-0.8,1.3-1.4s0.5-1.2,0.5-2L45.3,22.8L45.3,22.8z"/>
	<path fill="#00CCCC" d="M68.8,13.9c0.8,0,1.2,0.3,1.2,0.9c0,0.4-0.1,0.8-0.2,1l-6.3,16.3c-0.3,0.6-1,0.9-2.2,0.9
		c-1.1,0-1.8-0.3-2-0.9L53,15.8c-0.2-0.3-0.2-0.6-0.2-0.9c0-0.7,0.5-1,1.4-1c0.7,0,1.3,0.2,1.8,0.6s1,1.1,1.3,1.9l4.6,12.8h0.2
		l2.6-6.9c0.6-1.5,1.2-3.6,2-6.1c0.2-0.8,0.5-1.3,0.8-1.7S68.2,13.9,68.8,13.9z"/>
	<path fill="#00CCCC" d="M73.8,31.2V15.5c0-0.6,0.1-1,0.4-1.3c0.3-0.2,0.7-0.4,1.3-0.4c0.7,0,1.2,0.3,1.7,0.8
		c0.4,0.5,0.6,1.4,0.6,2.5v0.3h0.1c0.7-1.1,1.5-1.9,2.7-2.6c1.1-0.6,2.5-0.9,4-0.9c3.6,0,5.4,1.9,5.4,5.7v11.6
		c0,0.6-0.1,1.1-0.3,1.4c-0.2,0.3-0.6,0.5-1.2,0.5c-0.9,0-1.5-0.2-1.8-0.7s-0.6-1.3-0.6-2.4v-9.5c0-2.6-1.1-3.9-3.2-3.9
		c-0.6,0-1.1,0.1-1.7,0.3c-0.6,0.2-1.1,0.6-1.5,0.9c-0.5,0.4-0.8,0.9-1.1,1.4c-0.3,0.5-0.5,1.1-0.5,1.7v9.5c0,0.5,0,1-0.1,1.4
		c-0.1,0.3-0.2,0.6-0.4,0.8c-0.2,0.2-0.5,0.3-0.8,0.4C76.3,33,75.9,33,75.4,33c-0.6,0-1-0.2-1.2-0.5C74,32.3,73.8,31.8,73.8,31.2z"
		/>
	<path fill="#00CCCC" d="M96,10.7c-0.5-0.5-0.7-1-0.7-1.7c0-0.3,0.1-0.6,0.2-0.9c0.1-0.3,0.3-0.5,0.5-0.8c0.2-0.2,0.5-0.4,0.8-0.5
		c0.3-0.1,0.6-0.2,0.9-0.2c0.3,0,0.6,0.1,0.9,0.2c0.3,0.1,0.5,0.3,0.8,0.5c0.2,0.2,0.4,0.5,0.5,0.8c0.1,0.3,0.2,0.6,0.2,0.9
		c0,0.3-0.1,0.6-0.2,0.9c-0.1,0.3-0.3,0.5-0.5,0.8s-0.5,0.4-0.8,0.5c-0.3,0.1-0.6,0.2-0.9,0.2C97,11.4,96.4,11.2,96,10.7z
		 M99.7,16.5v14c0,0.5,0,1-0.1,1.3c-0.1,0.3-0.2,0.6-0.4,0.8c-0.2,0.2-0.5,0.3-0.8,0.4S97.7,33,97.3,33c-0.6,0-1-0.2-1.2-0.5
		c-0.2-0.3-0.3-0.8-0.3-1.4V15.7c0-0.6,0.1-1.1,0.3-1.4c0.2-0.3,0.6-0.5,1.2-0.5c0.8,0,1.4,0.2,1.8,0.6
		C99.5,14.9,99.7,15.6,99.7,16.5z"/>
</g>
</svg>
